<?xml version="1.0" encoding="utf-8"?>
<!-- Generator: Adobe Illustrator 28.1.0, SVG Export Plug-In . SVG Version: 6.00 Build 0)  -->
<svg version="1.1" id="Capa_1" xmlns="http://www.w3.org/2000/svg" xmlns:xlink="http://www.w3.org/1999/xlink" x="0px" y="0px"
	 viewBox="0 0 1940.16 669.82" style="enable-background:new 0 0 1940.16 669.82;" xml:space="preserve">
<style type="text/css">
	.st0{fill:#FFFFFF;}
</style>
<path class="st0" d="M1940.15,30.73c-5.71-1.79-20.9-5.72-15.92-5.06c-0.11,1.9-11.93,0.62-24.5,2.13
	c-12.56,3.02-25.87-5.35-28.96-0.46c-8.46,3.1-16.7-7.6-24.94-2.38c-8.24,3.21-16.48-0.25-24.92-2.39
	c-14.87,0.2-30.54-11.98-45.37-0.13c-8.62,2.55-15.55-0.55-24.35,2.69c-10.05,1.34-20.47-9.73-30.43-5.26
	c-4.74-7.34-6.57,1.25-11.62,5.26c-3.4,0.59-7.07,9.74-10.45-0.3c-5.33,6.59-9.74,5.73-15.29,5.01c-5.94-2.91-12.78,4.4-18.83-0.12
	c-5.29,3.86-11.28-13.33-16.42-14.12c-1.11,0.93-2.39,0.55-2.81,1.94c-7.06-5.18-14.16,8.18-21.05,5.41
	c-11.29,0.9-22.79,1.88-34.1-0.05c-10.43-4.03-20.99,1.78-31.4-0.09c-8.56-6.16-16.38,5.48-24.72,4.37
	c-6.11,1.85-10.62,3.76-15.16-2.27c-3.94-8.36-7.02-0.82-11.75-8.31c-8.48-2.28-15.24,2.3-24.87,5.91
	c-12.09-7.83-21.91-14.88-34.15-4.76c-6.76-0.17-11.88,1.6-18.25,2.46c-7.65-4.43-11.3-6.28-18.54-4.24
	c-13.03-5-24.22-8.83-37.72-7.64c-7.69-6.44-14.2-12.7-22.15-5.01c-2.71-2.11-8.79,0.77-11.05,0.39c-1.66,3.82-1.6,5.64-3.17,5.95
	c-4.94,4.34-22.15,1.81-27.47,0.46c-6.37-3.66-11.76-2.89-18.16-4.36c-6.72-3.75-13.65,6.38-20.38,0.06
	c-4.98-5.03-15.25-0.52-20.34-0.18c-5.44-1.77-7.75,12.64-14.22,5.08c-5.04-1.39-10.12,0.31-15.16-0.24
	c-8.71,1.34-16.58,10.23-25.35,2.52c-7.75,2.49-15.49,6.08-23.24,0c-6.12,7.15-10.23-0.74-15.17,2.28c-3.32,1.3-5.7,13.29-9.33,7.28
	c-4.36,4.52-9.65,5.06-14.07,2.92c-1.26,1.04-2.46-6.77-4.15,1.96c-2.9-0.55-7.1-0.2-10.08-0.09c-11.55,3.84-23.11-4.91-34.66,0
	c-6.93,0.23-14.06,0.36-20.98,0.06c-4.4-4.79-6.9-6.59-10.98-3.71c-2.54-2.13-5.96,5.63-8.29-1.53c-1.99-1.62-2.92-1.32-4.6-4.5
	c-4.77,2.16-10.41,0.27-16.2-2.26c-3.52,1.81-6.38,2.57-9.78,0.52c-0.14,2.03-1.58-0.27-2.31,1.98c-7.04,4.33-17.47,0.72-25.1-0.12
	c-12.45-2.55-25.28,0.36-37.69,0.12c-4.72,1.21-8.88,0.14-13.52-2.61c-3.61-1.97-7.44-6.48-11.06,0.09
	c-5.82,7.78-11.98-2.96-17.73-0.18c-8.13-1.48-14.3,4.05-22.85,4.96c-7.98-0.95-11.23,5.68-18.25,4.95
	c-7.58-1.65-15.31-3.02-22.92-2.58c-6.59-4.14-13.24-3.94-19.83,0.02c-7.33,3.53-14.67-0.01-22,0.06
	c-7.4-2.93-14.04-8.45-21.43-2.65c-2.17-3.08-4.3-2.52-6.39,0.62c-0.62,2.65-1.45,1.11-2.47,2.97c-3.63-1.27-6.22-0.43-10.44,1.45
	c-6.25-2.58-10.87,0.52-16.73,1.81c-10.48,4.24-22.71,0.67-33.48,0.31c-9.67,0.65-6.36-10.65-12.01-2.01
	c-3.07,6.03-2.35-1.01-6.06,2.93c-5.35-2.64-11.75,2.09-17.21-0.13c-10.07,3.46-20.14-0.63-30.21,0
	c-11.73,4.77-23.16-9.51-34.49-5.45c-9.65-2.57-18.89-2.34-28.58-1.82c-6.93-2.35-10.33,4.27-16.27-6.34
	c-5.15-4.02-10.67-16.23-17.35-11.17c-9.97,0.54-21.25,0.22-31.38,0.29c-11.12,0.19-26.59,22.84-36.48,15.73
	c-11.35-0.56-22.85-2.69-34.87-2.52c-10.23,7.01-20.75-3.22-31.74,2.39c-4.56-4.33-9.86,7.7-14.36-0.1
	c-7.15,8.62-7.46,9.81-9.82,9.15c-4.66,9.93-7.13-16.21-12.78-8.86c-4.47,7.62-7.65,6.21-12.03,0.84c-2.99,6.63-5.23,5.51-8.17,2.61
	c-3.59-13.25-8.34,8.12-12.05-0.12c-8.37,5.65-16.74-0.4-25.11,0c-6.04-1.45-18.81,0.51-24.12,0.1c-3.5,4.66-2.99-1.68-5.16-7.8
	c-2.14-3.84-4.25,11.38-7.69,4.68c-7.08,5.09-13.94,17.48-20.49,4.97c-6.93,3.29-15.24-1.58-23.66,5.14
	c-8.42-7.51-16.97-5.65-24.38-1.65c-10.13,3.21-16.28-16.6-26.92-10.92c-12.88-3.65-26.48,3.9-39.26,0.17
	c-9.25-10.93-19.06,5.08-28.24,9.55c-3.79,3.29-6.12-0.87-9.32-4.24c-4.83-7.84-9.27-7.65-15.07-4.9
	c-8.94,1.22-18.69-4.93-27.64,0.16c-9.15-3.13-13.75,1.68-23.07-7.34c-3.39,3.61-9.89-4.21-12.86-0.06
	c-4.12-1.12-5.66,6.5-10.52,5.14c-6.47,1.6-14.37,1.91-20.92-0.18c0,2.39,0,37.58,0,41.2c4.91,3.89,12.16,3.52,19.2,6.68
	c4.62-0.43,9.25-1.18,13.87-0.04c6.87-0.06,17.22,1.31,22.92-1.4c2.48-6,3.27-3.21,6.37-4.59c3.63-9.34,6.83-4.5,10.73-1.19
	c6.34,1.37,10.1,3.56,15.51,3.6c4.84,2.29,6.44,9.65,12.15,3.15c1.99,8.3-0.04,9.13-0.13,9.84c5.96-1.57,12.67,5.49,19.03,1.9
	c5.53-0.81,10.19,3.07,15.98,3.1c14.33,8.76,29.3,2.19,43.16-1.91c11.52-12.61,25.38-1,37.16-0.53
	c11.97,0.11,21.49-12.87,33.37-22.3c10.38-8.31,23.54,1.98,33.34-0.29c3.15-4.79,2.8,6.03,4.86-3.91c2.63-7.1,5.98,14.73,8.8,13.34
	c2.64-4.82,5.32-3.12,7.95-1.79c3.22,9.93,8.42,1.69,11.09-1.68c4.37-2.83,5.13-12.08,11.06-5.02c5.41,6.54,10.88,6.54,16.3,0.17
	c5.42,1.28,5.8-5.91,9.97-3.94c4.36-5.3,12.94-6.03,18.16-7.67c5.02,0.2,9.27,20.06,14.23,15.25c6.68-0.37,13.84-1.29,19.84-8.97
	c4.08,3.1,7.04-10.62,11.18-9.92c5.61-3.18,16.8,1.85,22.5-0.29c8.96,1.09,14.58-5.02,22.59,3.66c2.6,13.12,5.08,1.96,7.62,2.47
	c2.77,3.43,4.27-0.82,6.84,5.35c5.25,1.76,13.99-16.61,20.02-13.22c7.32,6.72,15.68,1.21,23.14,0.48c4.16,1.07,9.77,4.11,13.84-0.34
	c8.59,2.52,11.39,5.93,15.44,16.7c2.31,2.16,6.1,12.11,9.92,11.87c2.74,3.04,8.42-2.2,11.58,2.73c6.59,0.93,13.19,12.04,19.72,6.95
	c4.27,5.19,11.66-11.79,15.95-8.53c5.43-2.66,9.08-6.31,15.11-5.07c4.69,0.96,11.14-0.8,15.72,0.59c2.44,5.44,4.52,9.69,7.17,3.97
	c3.92-6.21,7.74-3.72,11.61,0.92c4.66,10.85,9.78-1.36,14.81,4.06c5.43-8.21,11.81,6.72,17.36,0.2c5.11,5.87,10.21,8.8,15.32-0.01
	c7.86,3.35,14.55,10.78,22.16,6.49c7.79-3.14,18.7-6.96,26.49,0.6c5.4,3.54,10.71,8.04,16.17,4.89c6.86,1.48,13.07,3.75,19.68,5.52
	c5.44,2.97,23.12,2.38,28.43,0.71c-0.89-14.67,16.53-8.88,23.55-6.81c12.45,0.97,23.55-1.49,36.08,2.39
	c11.07,0.37,19.06,8.15,29.75,6.68c7.89-0.83,20.25,4.82,28.21,0.3c8.51-0.83,16.22-0.33,24.96-8.91
	c10.15,3.88,18.82,3.68,28.82,1.94c7.55-1.01,15.11,1.81,22.66-0.03c3.54-0.79,7.09,4.03,10.56-0.4c3.25-1.92,6.15-3.41,9.35-3.92
	c2-2.16,4.45-0.4,6.38-0.86c4.55-0.85,7.9-3.04,12.47-7.78c3.9-4.52,9.53-3.98,13.9-3.88c4.77-0.57,8.11,1.8,12.98-0.91
	c6.88-3.02,11.28-2.5,17.23-9.85c11.01-5.29,26.28-2.72,38.48-3.47c12.1-5.19,21.48,0.33,32.61-4.87
	c6.05-5.52,11.91-8.96,18.39-11.55c3.83-7.05,9.41-1.21,13.29-0.27c8.27,3.61,14.23,3.77,22.16-3.43c4.51,3.59,9.68-1.18,14.5-1.51
	c1.44-4.47,3.1-2.99,4.5,0.51c0.95,2.22,1.57,0.21,3.06,4.09c4.02-3.56,8.55-0.56,11.88-3.39c11.61-0.74,23.4,3.13,35.21,1.34
	c7.25,1.83,14.53-5.75,21.78-0.06c10.51,5.44,19.81,2.02,28.22,4.13c5.74-3.56,13.95,15.37,21.12,9.75
	c9.48-5.04,18.46,0.54,27.49,2.87c7.46,5.79,15.36,8.92,23.15,6.4c8.16,5.75,20.41,13.48,30.57,10.25c2.92,2.39,3.38-5.35,6.3-4.87
	c3.44-2.69,10.22,4.6,14.17,0.18c7.49,0.35,17.82,12.64,23.86-2.27c5.3-2.6,4.66-3.66,12.38-5.08c5.13,1.99,9.8,2.81,14.88,2.65
	c3.36-2.39,6.87-2.21,10.24-0.07c6.53,3.82,9.45-5.5,15.12,3.58c8.09-1.7,17.17-0.08,25.85,8.49c12.82,4.41,27.22,16.05,41.01,9.55
	c9.7-2.02,19.4,1.59,29.11-0.19c9.71,0,19.41-3.5,29.11,0.08c8.53,7.78,21.25,5.93,29.13-1.4c6.76-1.73,11.11-7.5,19.05-5.77
	c9.25-9.6,18.51,1.98,27.77,0c9.57,3.33,22.13,4.57,31.56,0.17c4.94-1.93,5.44-14.54,9.4-6.98c4.23-10.65,11.52,2.06,15.79,1.37
	c13.29-5.13,26.66,13.26,39.8,10.29c8.89,7.5,15.98,8.31,25.48,9.59c12.72-0.21,24.35,0.71,36.29-5.46
	c11.18-13.33,20.83-6.17,32.94-4.25c5.03-8.09-1.21,11.7,3.87,7.24c8.4,0.48,1.25,3.6,8.4,0.48c0-3.99-0.23-20.31-0.11-34.87
	C1940.25,37.94,1939.57,40.12,1940.15,30.73z"/>
<path class="st0" d="M1940.09,638.65c-5.71,1.79-20.9,5.72-15.92,5.06c-0.11-1.9-11.93-0.62-24.5-2.13
	c-12.56-3.02-25.87,5.35-28.96,0.46c-8.46-3.1-16.7,7.6-24.94,2.38c-8.24-3.21-16.48,0.25-24.92,2.39
	c-14.87-0.2-30.54,11.98-45.37,0.13c-8.62-2.55-15.55,0.55-24.35-2.69c-10.05-1.34-20.47,9.73-30.43,5.26
	c-4.74,7.34-6.57-1.25-11.62-5.26c-3.4-0.59-7.07-9.74-10.45,0.3c-5.33-6.59-9.74-5.73-15.29-5.01c-5.94,2.91-12.78-4.4-18.83,0.12
	c-5.29-3.86-11.28,13.33-16.42,14.12c-1.11-0.93-2.39-0.55-2.81-1.94c-7.06,5.18-14.16-8.18-21.05-5.41
	c-11.29-0.9-22.79-1.88-34.1,0.05c-10.43,4.03-20.99-1.78-31.4,0.09c-8.56,6.16-16.38-5.48-24.72-4.37
	c-6.11-1.85-10.62-3.76-15.16,2.27c-3.94,8.36-7.02,0.82-11.75,8.31c-8.48,2.28-15.24-2.3-24.87-5.91
	c-12.09,7.83-21.91,14.88-34.15,4.76c-6.76,0.17-11.88-1.6-18.25-2.46c-7.65,4.43-11.3,6.28-18.54,4.24
	c-13.03,5-24.22,8.83-37.72,7.64c-7.69,6.44-14.2,12.7-22.15,5.01c-2.71,2.11-8.79-0.77-11.05-0.39c-1.66-3.82-1.6-5.64-3.17-5.95
	c-4.94-4.34-22.15-1.81-27.47-0.46c-6.37,3.66-11.76,2.89-18.16,4.36c-6.72,3.75-13.65-6.38-20.38-0.06
	c-4.98,5.03-15.25,0.52-20.34,0.18c-5.44,1.77-7.75-12.64-14.22-5.08c-5.04,1.39-10.12-0.31-15.16,0.24
	c-8.71-1.34-16.58-10.23-25.35-2.52c-7.75-2.49-15.49-6.08-23.24,0c-6.12-7.15-10.23,0.74-15.17-2.28c-3.32-1.3-5.7-13.29-9.33-7.28
	c-4.36-4.52-9.65-5.06-14.07-2.92c-1.26-1.04-2.46,6.77-4.15-1.96c-2.9,0.55-7.1,0.2-10.08,0.09c-11.55-3.84-23.11,4.91-34.66,0
	c-6.93-0.23-14.06-0.36-20.98-0.06c-4.4,4.79-6.9,6.59-10.98,3.71c-2.54,2.13-5.96-5.63-8.29,1.53c-1.99,1.62-2.92,1.32-4.6,4.5
	c-4.77-2.16-10.41-0.27-16.2,2.26c-3.52-1.81-6.38-2.57-9.78-0.52c-0.14-2.03-1.58,0.27-2.31-1.98c-7.04-4.33-17.47-0.72-25.1,0.12
	c-12.45,2.55-25.28-0.36-37.69-0.12c-4.72-1.21-8.88-0.14-13.52,2.61c-3.61,1.97-7.44,6.48-11.06-0.09
	c-5.82-7.78-11.98,2.96-17.73,0.18c-8.13,1.48-14.3-4.05-22.85-4.96c-7.98,0.95-11.23-5.68-18.25-4.95
	c-7.58,1.65-15.31,3.02-22.92,2.58c-6.59,4.14-13.24,3.94-19.83-0.02c-7.33-3.53-14.67,0.01-22-0.06
	c-7.4,2.93-14.04,8.45-21.43,2.65c-2.17,3.08-4.3,2.52-6.39-0.62c-0.62-2.65-1.45-1.11-2.47-2.97c-3.63,1.27-6.22,0.43-10.44-1.45
	c-6.25,2.58-10.87-0.52-16.73-1.81c-10.48-4.24-22.71-0.67-33.48-0.31c-9.67-0.65-6.36,10.65-12.01,2.01
	c-3.07-6.03-2.35,1.01-6.06-2.93c-5.35,2.64-11.75-2.09-17.21,0.13c-10.07-3.46-20.14,0.63-30.21,0
	c-11.73-4.77-23.16,9.51-34.49,5.45c-9.65,2.57-18.89,2.34-28.58,1.82c-6.93,2.35-10.33-4.27-16.27,6.34
	c-5.15,4.02-10.67,16.23-17.35,11.17c-9.97-0.54-21.25-0.22-31.38-0.29c-11.12-0.19-26.59-22.84-36.48-15.73
	c-11.35,0.56-22.85,2.69-34.87,2.52c-10.23-7.01-20.75,3.22-31.74-2.39c-4.56,4.33-9.86-7.7-14.36,0.1
	c-7.15-8.62-7.46-9.81-9.82-9.15c-4.66-9.93-7.13,16.21-12.78,8.86c-4.47-7.62-7.65-6.21-12.03-0.84c-2.99-6.63-5.23-5.51-8.17-2.61
	c-3.59,13.25-8.34-8.12-12.05,0.12c-8.37-5.65-16.74,0.4-25.11,0c-6.04,1.45-18.81-0.51-24.12-0.1c-3.5-4.66-2.99,1.68-5.16,7.8
	c-2.14,3.84-4.25-11.38-7.69-4.68c-7.08-5.09-13.94-17.48-20.49-4.97c-6.93-3.29-15.24,1.58-23.66-5.14
	c-8.42,7.51-16.97,5.65-24.38,1.65c-10.13-3.21-16.28,16.6-26.92,10.92c-12.88,3.65-26.48-3.9-39.26-0.17
	c-9.25,10.93-19.06-5.08-28.24-9.55c-3.79-3.29-6.12,0.87-9.32,4.24c-4.83,7.84-9.27,7.65-15.07,4.9
	c-8.94-1.22-18.69,4.93-27.64-0.16c-9.15,3.13-13.75-1.68-23.07,7.34c-3.39-3.61-9.89,4.21-12.86,0.06
	c-4.12,1.12-5.66-6.5-10.52-5.14c-6.47-1.6-14.37-1.91-20.92,0.18c0-2.39,0-37.58,0-41.2c4.91-3.89,12.16-3.52,19.2-6.68
	c4.62,0.43,9.25,1.18,13.87,0.04c6.87,0.06,17.22-1.31,22.92,1.4c2.48,6,3.27,3.21,6.37,4.59c3.63,9.34,6.83,4.5,10.73,1.19
	c6.34-1.37,10.1-3.56,15.51-3.6c4.84-2.29,6.44-9.65,12.15-3.15c1.99-8.3-0.04-9.13-0.13-9.84c5.96,1.57,12.67-5.49,19.03-1.9
	c5.53,0.81,10.19-3.07,15.98-3.1c14.33-8.76,29.3-2.19,43.16,1.91c11.52,12.61,25.38,1,37.16,0.53
	c11.97-0.11,21.49,12.87,33.37,22.3c10.38,8.31,23.54-1.98,33.34,0.29c3.15,4.79,2.8-6.03,4.86,3.91c2.63,7.1,5.98-14.73,8.8-13.34
	c2.64,4.82,5.32,3.12,7.95,1.79c3.22-9.93,8.42-1.69,11.09,1.68c4.37,2.83,5.13,12.08,11.06,5.02c5.41-6.54,10.88-6.54,16.3-0.17
	c5.42-1.28,5.8,5.91,9.97,3.94c4.36,5.3,12.94,6.03,18.16,7.67c5.02-0.2,9.27-20.06,14.23-15.25c6.68,0.37,13.84,1.29,19.84,8.97
	c4.08-3.1,7.04,10.62,11.18,9.92c5.61,3.18,16.8-1.85,22.5,0.29c8.96-1.09,14.58,5.02,22.59-3.66c2.6-13.12,5.08-1.96,7.62-2.47
	c2.77-3.43,4.27,0.82,6.84-5.35c5.25-1.76,13.99,16.61,20.02,13.22c7.32-6.72,15.68-1.21,23.14-0.48c4.16-1.07,9.77-4.11,13.84,0.34
	c8.59-2.52,11.39-5.93,15.44-16.7c2.31-2.16,6.1-12.11,9.92-11.87c2.74-3.04,8.42,2.2,11.58-2.73c6.59-0.93,13.19-12.04,19.72-6.95
	c4.27-5.19,11.66,11.79,15.95,8.53c5.43,2.66,9.08,6.31,15.11,5.07c4.69-0.96,11.14,0.8,15.72-0.59c2.44-5.44,4.52-9.69,7.17-3.97
	c3.92,6.21,7.74,3.72,11.61-0.92c4.66-10.85,9.78,1.36,14.81-4.06c5.43,8.21,11.81-6.72,17.36-0.2c5.11-5.87,10.21-8.8,15.32,0.01
	c7.86-3.35,14.55-10.78,22.16-6.49c7.79,3.14,18.7,6.96,26.49-0.6c5.4-3.54,10.71-8.04,16.17-4.89c6.86-1.48,13.07-3.75,19.68-5.52
	c5.44-2.97,23.12-2.38,28.43-0.71c-0.89,14.67,16.53,8.88,23.55,6.81c12.45-0.97,23.55,1.49,36.08-2.39
	c11.07-0.37,19.06-8.15,29.75-6.68c7.89,0.83,20.25-4.82,28.21-0.3c8.51,0.83,16.22,0.33,24.96,8.91
	c10.15-3.88,18.82-3.68,28.82-1.94c7.55,1.01,15.11-1.81,22.66,0.03c3.54,0.79,7.09-4.03,10.56,0.4c3.25,1.92,6.15,3.41,9.35,3.92
	c2,2.16,4.45,0.4,6.38,0.86c4.55,0.85,7.9,3.04,12.47,7.78c3.9,4.52,9.53,3.98,13.9,3.88c4.77,0.57,8.11-1.8,12.98,0.91
	c6.88,3.02,11.28,2.5,17.23,9.85c11.01,5.29,26.28,2.72,38.48,3.47c12.1,5.19,21.48-0.33,32.61,4.87
	c6.05,5.52,11.91,8.96,18.39,11.55c3.83,7.05,9.41,1.21,13.29,0.27c8.27-3.61,14.23-3.77,22.16,3.43c4.51-3.59,9.68,1.18,14.5,1.51
	c1.44,4.47,3.1,2.99,4.5-0.51c0.95-2.22,1.57-0.21,3.06-4.09c4.02,3.56,8.55,0.56,11.88,3.39c11.61,0.74,23.4-3.13,35.21-1.34
	c7.25-1.83,14.53,5.75,21.78,0.06c10.51-5.44,19.81-2.02,28.22-4.13c5.74,3.56,13.95-15.37,21.12-9.75
	c9.48,5.04,18.46-0.54,27.49-2.87c7.46-5.79,15.36-8.92,23.15-6.4c8.16-5.75,20.41-13.48,30.57-10.25c2.92-2.39,3.38,5.35,6.3,4.87
	c3.44,2.69,10.22-4.6,14.17-0.18c7.49-0.35,17.82-12.64,23.86,2.27c5.3,2.6,4.66,3.66,12.38,5.08c5.13-1.99,9.8-2.81,14.88-2.65
	c3.36,2.39,6.87,2.21,10.24,0.07c6.53-3.82,9.45,5.5,15.12-3.58c8.09,1.7,17.17,0.08,25.85-8.49c12.82-4.41,27.22-16.05,41.01-9.55
	c9.7,2.02,19.4-1.59,29.11,0.19c9.71,0,19.41,3.5,29.11-0.08c8.53-7.78,21.25-5.93,29.13,1.4c6.76,1.73,11.11,7.5,19.05,5.77
	c9.25,9.6,18.51-1.98,27.77,0c9.57-3.33,22.13-4.57,31.56-0.17c4.94,1.93,5.44,14.54,9.4,6.98c4.23,10.65,11.52-2.06,15.79-1.37
	c13.29,5.13,26.66-13.26,39.8-10.29c8.89-7.5,15.98-8.31,25.48-9.59c12.72,0.21,24.35-0.71,36.29,5.46
	c11.18,13.33,20.83,6.17,32.94,4.25c5.03,8.09-1.21-11.7,3.87-7.24c8.4-0.48,1.25-3.6,8.4-0.48c0,3.99-0.23,20.31-0.11,34.87
	C1940.19,631.44,1939.52,629.26,1940.09,638.65z"/>
</svg>
